<svg xmlns="http://www.w3.org/2000/svg" width="940" height="580" viewBox="0 0 940 580"><rect width="940" height="580" fill="#FFFFFF"/><line x1="96" y1="484.0" x2="676.0" y2="484.0" stroke="#6B7684" stroke-width="1.8"/><line x1="96" y1="484.0" x2="96" y2="108.0" stroke="#6B7684" stroke-width="1.8"/><text x="378.00" y="512.00" font-family="'Noto Sans CJK TC','Noto Sans TC','Microsoft JhengHei','PingFang TC','Heiti TC',sans-serif" font-size="13" fill="#6B7684" text-anchor="middle" dominant-baseline="middle" font-weight="400">滑移量 →</text><text x="104.00" y="96.00" font-family="'Noto Sans CJK TC','Noto Sans TC','Microsoft JhengHei','PingFang TC','Heiti TC',sans-serif" font-size="13" fill="#6B7684" text-anchor="start" dominant-baseline="middle" font-weight="400">接合承載力</text><line x1="96" y1="335.91349575691214" x2="660.0" y2="335.91349575691214" stroke="#2E7D6F" stroke-width="1.6" stroke-dasharray="6 4"/><text x="670.00" y="335.91" font-family="'Noto Sans CJK TC','Noto Sans TC','Microsoft JhengHei','PingFang TC','Heiti TC',sans-serif" font-size="11.5" fill="#2E7D6F" text-anchor="start" dominant-baseline="middle" font-weight="700">滑動強度 1.47 tf/cm²（摩阻型表列）</text><line x1="96" y1="200.9230769230769" x2="660.0" y2="200.9230769230769" stroke="#C0392B" stroke-width="1.6" stroke-dasharray="6 4"/><text x="670.00" y="200.92" font-family="'Noto Sans CJK TC','Noto Sans TC','Microsoft JhengHei','PingFang TC','Heiti TC',sans-serif" font-size="11.5" fill="#C0392B" text-anchor="start" dominant-baseline="middle" font-weight="700">螺栓剪力強度 2.81 tf/cm²（承壓型 X 表列）</text><polyline points="96.00,484.00 100.70,471.66 105.40,459.32 110.10,446.98 114.80,434.64 119.50,422.30 124.20,409.96 128.90,397.62 133.60,385.28 138.30,372.94 143.00,360.59 147.70,348.25 152.40,335.91 157.10,335.91 161.80,335.91 166.50,335.91 171.20,335.91 175.90,335.91 180.60,335.91 185.30,335.91 190.00,335.91 194.70,335.91 199.40,335.91 204.10,335.91 208.80,335.91 213.50,335.91 218.20,335.91 222.90,335.91 227.60,335.91 232.30,335.91 237.00,335.91 241.70,335.91 246.40,335.91 251.10,335.91 255.80,335.91 260.50,335.91 265.20,335.91 269.90,330.16 274.60,326.24 279.30,322.80 284.00,319.65 288.70,316.68 293.40,313.86 298.10,311.16 302.80,308.55 307.50,306.03 312.20,303.57 316.90,301.17 321.60,298.83 326.30,296.54 331.00,294.29 335.70,292.08 340.40,289.90 345.10,287.76 349.80,285.65 354.50,283.57 359.20,281.52 363.90,279.49 368.60,277.49 373.30,275.51 378.00,273.55 382.70,271.61 387.40,269.69 392.10,267.79 396.80,265.91 401.50,264.04 406.20,262.19 410.90,260.35 415.60,258.53 420.30,256.73 425.00,254.93 429.70,253.15 434.40,251.39 439.10,249.63 443.80,247.89 448.50,246.16 453.20,244.43 457.90,242.72 462.60,241.03 467.30,239.34 472.00,237.66 476.70,235.99 481.40,234.33 486.10,232.67 490.80,231.03 495.50,229.40 500.20,227.77 504.90,226.15 509.60,224.54 514.30,222.94 519.00,221.34 523.70,219.76 528.40,218.18 533.10,216.60 537.80,215.04 542.50,213.48 547.20,211.92 551.90,210.38 556.60,208.84 561.30,207.30 566.00,205.77 570.70,204.25 575.40,202.74 580.10,201.22 584.80,200.92 589.50,200.92 594.20,200.92 598.90,200.92 603.60,200.92 608.30,200.92 613.00,200.92 617.70,200.92 622.40,200.92 627.10,200.92 631.80,200.92 636.50,200.92 641.20,200.92 645.90,200.92 650.60,200.92 655.30,200.92 660.00,200.92" fill="none" stroke="#1D4ED8" stroke-width="3.4" stroke-linejoin="round"/><circle cx="152.40" cy="335.91" r="6" fill="#2E7D6F" stroke="#FFFFFF" stroke-width="2"/><text x="152.40" y="311.91" font-family="'Noto Sans CJK TC','Noto Sans TC','Microsoft JhengHei','PingFang TC','Heiti TC',sans-serif" font-size="12.5" fill="#2E7D6F" text-anchor="middle" dominant-baseline="middle" font-weight="700">① 接觸面滑動</text><text x="152.40" y="327.91" font-family="'Noto Sans CJK TC','Noto Sans TC','Microsoft JhengHei','PingFang TC','Heiti TC',sans-serif" font-size="11" fill="#6B7684" text-anchor="middle" dominant-baseline="middle" font-weight="400">主要極限狀態</text><circle cx="375.74" cy="274.49" r="6" fill="#B45309" stroke="#FFFFFF" stroke-width="2"/><text x="375.74" y="250.49" font-family="'Noto Sans CJK TC','Noto Sans TC','Microsoft JhengHei','PingFang TC','Heiti TC',sans-serif" font-size="12.5" fill="#B45309" text-anchor="middle" dominant-baseline="middle" font-weight="700">② 孔壁承壓／撕出</text><text x="375.74" y="266.49" font-family="'Noto Sans CJK TC','Noto Sans TC','Microsoft JhengHei','PingFang TC','Heiti TC',sans-serif" font-size="11" fill="#6B7684" text-anchor="middle" dominant-baseline="middle" font-weight="400">滑動後螺栓桿接觸孔壁</text><circle cx="581.04" cy="200.92" r="6" fill="#C0392B" stroke="#FFFFFF" stroke-width="2"/><text x="581.04" y="176.92" font-family="'Noto Sans CJK TC','Noto Sans TC','Microsoft JhengHei','PingFang TC','Heiti TC',sans-serif" font-size="12.5" fill="#C0392B" text-anchor="middle" dominant-baseline="middle" font-weight="700">③ 螺栓桿剪力破壞</text><text x="581.04" y="192.92" font-family="'Noto Sans CJK TC','Noto Sans TC','Microsoft JhengHei','PingFang TC','Heiti TC',sans-serif" font-size="11" fill="#6B7684" text-anchor="middle" dominant-baseline="middle" font-weight="400">接合最終破壞</text><text x="208.80" y="359.91" font-family="'Noto Sans CJK TC','Noto Sans TC','Microsoft JhengHei','PingFang TC','Heiti TC',sans-serif" font-size="11.5" fill="#2E7D6F" text-anchor="middle" dominant-baseline="middle" font-weight="400">滑動平台：摩擦已喪失</text><text x="670.00" y="392.00" font-family="'Noto Sans CJK TC','Noto Sans TC','Microsoft JhengHei','PingFang TC','Heiti TC',sans-serif" font-size="12" fill="#6B7684" text-anchor="start" dominant-baseline="middle" font-weight="400">④ 板件淨斷面斷裂／塊狀撕裂</text><text x="670.00" y="412.00" font-family="'Noto Sans CJK TC','Noto Sans TC','Microsoft JhengHei','PingFang TC','Heiti TC',sans-serif" font-size="12" fill="#6B7684" text-anchor="start" dominant-baseline="middle" font-weight="400">　 （另行檢核，不在此曲線上）</text><text x="670.00" y="448.00" font-family="'Noto Sans CJK TC','Noto Sans TC','Microsoft JhengHei','PingFang TC','Heiti TC',sans-serif" font-size="12.5" fill="#1F2733" text-anchor="start" dominant-baseline="middle" font-weight="700">滑動之「分類」：</text><text x="670.00" y="470.00" font-family="'Noto Sans CJK TC','Noto Sans TC','Microsoft JhengHei','PingFang TC','Heiti TC',sans-serif" font-size="11.5" fill="#6B7684" text-anchor="start" dominant-baseline="middle" font-weight="400">使用性極限 → 以服務載重檢核</text><text x="670.00" y="490.00" font-family="'Noto Sans CJK TC','Noto Sans TC','Microsoft JhengHei','PingFang TC','Heiti TC',sans-serif" font-size="11.5" fill="#6B7684" text-anchor="start" dominant-baseline="middle" font-weight="400">強度極限 → 以因數化載重檢核</text><text x="670.00" y="522.00" font-family="'Noto Sans CJK TC','Noto Sans TC','Microsoft JhengHei','PingFang TC','Heiti TC',sans-serif" font-size="11.5" fill="#B45309" text-anchor="start" dominant-baseline="middle" font-weight="700">AISC 360-10 起 φ 改依孔型（1.00／0.85／0.70）</text><text x="470.00" y="34.00" font-family="'Noto Sans CJK TC','Noto Sans TC','Microsoft JhengHei','PingFang TC','Heiti TC',sans-serif" font-size="17.5" fill="#1F2733" text-anchor="middle" dominant-baseline="middle" font-weight="700">圖 2　摩阻型接合的荷重–滑移行為與極限狀態先後</text><text x="470.00" y="58.00" font-family="'Noto Sans CJK TC','Noto Sans TC','Microsoft JhengHei','PingFang TC','Heiti TC',sans-serif" font-size="13" fill="#6B7684" text-anchor="middle" dominant-baseline="middle" font-weight="400">縱軸刻度為台灣 ASD 表 C10.3-2 之 A490 標準孔表列容許剪應力</text><text x="470.00" y="84.00" font-family="'Noto Sans CJK TC','Noto Sans TC','Microsoft JhengHei','PingFang TC','Heiti TC',sans-serif" font-size="12.5" fill="#B45309" text-anchor="middle" dominant-baseline="middle" font-weight="400">滑動不是「破壞」，而是傳力機制的切換——答題只寫「滑動」而不說後續，等於漏掉一半</text><text x="470.00" y="554.00" font-family="'Noto Sans CJK TC','Noto Sans TC','Microsoft JhengHei','PingFang TC','Heiti TC',sans-serif" font-size="13" fill="#6B7684" text-anchor="middle" dominant-baseline="middle" font-weight="400">設計優先序：滑動阻抗 ≥ 設計剪力；若容許滑動，才接著檢核螺栓剪力、承壓與淨斷面</text></svg>