<svg xmlns="http://www.w3.org/2000/svg" width="1040" height="722" viewBox="0 0 1040 722" xmlns:c2pa="http://c2pa.org/manifest"><metadata><c2pa:manifest>AAAWgmp1bWIAAAAeanVtZGMycGEAEQAQgAAAqgA4m3EDYzJwYQAAABZcanVtYgAAAEdqdW1kYzJtYQARABCAAACqADibcQN1cm46YzJwYTowZWU5ZjJmZS1iMTYxLTQzYmItYWVjYi0zOTA1YTA3Y2Q2YzMAAAADl2p1bWIAAAApanVtZGMyYXMAEQAQgAAAqgA4m3EDYzJwYS5hc3NlcnRpb25zAAAAALxqdW1iAAAARGp1bWRjYm9yABEAEIAAAKoAOJtxE2MycGEuaW5ncmVkaWVudC52MwAAAAAYYzJzaMrwadJEFNgRiu743huanlQAAABwY2JvcqNpZGM6Zm9ybWF0bWltYWdlL3N2Zyt4bWxqaW5zdGFuY2VJRHgseG1wOmlpZDoyZDQ1OTkyNC0xNTY5LTQ5YjYtYjg2ZC1hOTg1MWJiNDRkMjZscmVsYXRpb25zaGlwaHBhcmVudE9mAAAB4mp1bWIAAABBanVtZGNib3IAEQAQgAAAqgA4m3ETYzJwYS5hY3Rpb25zLnYyAAAAABhjMnNoeBr9GA1KJ2amUWDyROe2NAAAAZljYm9yomdhY3Rpb25zgqJmYWN0aW9ua2MycGEub3BlbmVkanBhcmFtZXRlcnOha2luZ3JlZGllbnRzgaJjdXJseC1zZWxmI2p1bWJmPWMycGEuYXNzZXJ0aW9ucy9jMnBhLmluZ3JlZGllbnQudjNkaGFzaFggZSHlbOrUQetBRITsbAh2fZUooXASz0kS1xVZwmowtkSkZmFjdGlvbngdY29tLmFudGhyb3BpYy5jbGF1ZGUucHJvdmlkZWRqcGFyYW1ldGVyc6F4H2NvbS5hbnRocm9waWMub3JpZ2luLWNvbmZpZGVuY2VndW5rbm93bmtkZXNjcmlwdGlvbnhmQ2xhdWRlIHByb3ZpZGVkIHRoaXMgZmlsZSBhdCB0aGUgcmVxdWVzdCBvZiBhIHVzZXIgYW5kIG1heSBoYXZlIGNyZWF0ZWQgb3IgbW9kaWZpZWQgdGhlIGZpbGUgY29udGVudHMubXNvZnR3YXJlQWdlbnShZG5hbWVmQ2xhdWRlcmFsbEFjdGlvbnNJbmNsdWRlZPUAAADIanVtYgAAAEBqdW1kY2JvcgARABCAAACqADibcRNjMnBhLmhhc2guZGF0YQAAAAAYYzJzaFnzn5ruz2mvOkB41BZCSQAAAACAY2JvcqVjYWxnZnNoYTI1NmNwYWRNAAAAAAAAAAAAAAAAAGRoYXNoWCDd6syXv67LU3AAmOIrC6iGJngKzOV+2seY2NIUYZffa2RuYW1lbmp1bWJmIG1hbmlmZXN0amV4Y2x1c2lvbnOBomVzdGFydBiYZmxlbmd0aBkeBAAAAj5qdW1iAAAAJ2p1bWRjMmNsABEAEIAAAKoAOJtxA2MycGEuY2xhaW0udjIAAAACD2Nib3KlY2FsZ2ZzaGEyNTZpc2lnbmF0dXJleE1zZWxmI2p1bWJmPS9jMnBhL3VybjpjMnBhOjBlZTlmMmZlLWIxNjEtNDNiYi1hZWNiLTM5MDVhMDdjZDZjMy9jMnBhLnNpZ25hdHVyZWppbnN0YW5jZUlEeCx4bXA6aWlkOmM2NzVmNjY5LTRlZTItNDE0Zi1hNTAyLTQ5YWNhMTU3NDdiZHJjcmVhdGVkX2Fzc2VydGlvbnODomN1cmx4LXNlbGYjanVtYmY9YzJwYS5hc3NlcnRpb25zL2MycGEuaW5ncmVkaWVudC52M2RoYXNoWCBlIeVs6tRB60FEhOxsCHZ9lSihcBLPSRLXFVnCajC2RKJjdXJseCpzZWxmI2p1bWJmPWMycGEuYXNzZXJ0aW9ucy9jMnBhLmFjdGlvbnMudjJkaGFzaFgg1FfHFifVszO+bxAS25oryyx3F9s5Sy0KlH8o99Q3j3yiY3VybHgpc2VsZiNqdW1iZj1jMnBhLmFzc2VydGlvbnMvYzJwYS5oYXNoLmRhdGFkaGFzaFggbFcYz0Aw01xIsupcalZlDzWFXHnuOBTC4d1xGkoh4350Y2xhaW1fZ2VuZXJhdG9yX2luZm+jZG5hbWVvQW50aHJvcGljIEZpbGVzZ3ZlcnNpb25lMS4wLjBrc3BlY1ZlcnNpb25lMi40LjAAABA4anVtYgAAAChqdW1kYzJjcwARABCAAACqADibcQNjMnBhLnNpZ25hdHVyZQAAABAIY2JvctKEWQISogEmGCFZAgowggIGMIIBjaADAgECAhRA5aAK7sI50L64g/oGQgU9Z1UTADAKBggqhkjOPQQDAzBJMRcwFQYDVQQKEw5BbnRocm9waWMsIFBCQzEuMCwGA1UEAxMlQW50aHJvcGljIENvbnRlbnQgQ3JlZGVudGlhbHMgUm9vdCBDQTAeFw0yNjA4MDcxODQzNTZaFw0yODA4MDYxOTQzNTZaMEQxFzAVBgNVBAoTDkFudGhyb3BpYywgUEJDMSkwJwYDVQQDEyBBbnRocm9waWMgQ2xhdWRlIENvbnRlbnQgU2lnbmluZzBZMBMGByqGSM49AgEGCCqGSM49AwEHA0IABJh6CmvLUBgFFNU0vUKlOVtE6djd17L5SuwX0LemFisBM3dkd/3cyjxFA3Qo5S46fX0/ihY0VZ7mfb9KF703t5OjWDBWMA4GA1UdDwEB/wQEAwIHgDAVBgNVHSUEDjAMBgorBgEEAYPoXgIBMAwGA1UdEwEB/wQCMAAwHwYDVR0jBBgwFoAUzlHiBIFOZFsj+OPEz5o+nMHXXMIwCgYIKoZIzj0EAwMDZwAwZAIwMXMdFJ4BetLLVY7ORuE9noqbbAZOZn/aArXyTwFAZfKrPzxF2vPoJNf1+UCdg1XGAjBwX1zd9WGqYkqmL5SFqw1QySjr1zJfpJM9+1rdDwSPLMOPOjKuiXjoU/pUUeG9RwmhY3BhZFkNngAAAAAAAAAAAAAAAAAAAAAAAAAAAAAAAAAAAAAAAAAAAAAAAAAAAAAAAAAAAAAAAAAAAAAAAAAAAAAAAAAAAAAAAAAAAAAAAAAAAAAAAAAAAAAAAAAAAAAAAAAAAAAAAAAAAAAAAAAAAAAAAAAAAAAAAAAAAAAAAAAAAAAAAAAAAAAAAAAAAAAAAAAAAAAAAAAAAAAAAAAAAAAAAAAAAAAAAAAAAAAAAAAAAAAAAAAAAAAAAAAAAAAAAAAAAAAAAAAAAAAAAAAAAAAAAAAAAAAAAAAAAAAAAAAAAAAAAAAAAAAAAAAAAAAAAAAAAAAAAAAAAAAAAAAAAAAAAAAAAAAAAAAAAAAAAAAAAAAAAAAAAAAAAAAAAAAAAAAAAAAAAAAAAAAAAAAAAAAAAAAAAAAAAAAAAAAAAAAAAAAAAAAAAAAAAAAAAAAAAAAAAAAAAAAAAAAAAAAAAAAAAAAAAAAAAAAAAAAAAAAAAAAAAAAAAAAAAAAAAAAAAAAAAAAAAAAAAAAAAAAAAAAAAAAAAAAAAAAAAAAAAAAAAAAAAAAAAAAAAAAAAAAAAAAAAAAAAAAAAAAAAAAAAAAAAAAAAAAAAAAAAAAAAAAAAAAAAAAAAAAAAAAAAAAAAAAAAAAAAAAAAAAAAAAAAAAAAAAAAAAAAAAAAAAAAAAAAAAAAAAAAAAAAAAAAAAAAAAAAAAAAAAAAAAAAAAAAAAAAAAAAAAAAAAAAAAAAAAAAAAAAAAAAAAAAAAAAAAAAAAAAAAAAAAAAAAAAAAAAAAAAAAAAAAAAAAAAAAAAAAAAAAAAAAAAAAAAAAAAAAAAAAAAAAAAAAAAAAAAAAAAAAAAAAAAAAAAAAAAAAAAAAAAAAAAAAAAAAAAAAAAAAAAAAAAAAAAAAAAAAAAAAAAAAAAAAAAAAAAAAAAAAAAAAAAAAAAAAAAAAAAAAAAAAAAAAAAAAAAAAAAAAAAAAAAAAAAAAAAAAAAAAAAAAAAAAAAAAAAAAAAAAAAAAAAAAAAAAAAAAAAAAAAAAAAAAAAAAAAAAAAAAAAAAAAAAAAAAAAAAAAAAAAAAAAAAAAAAAAAAAAAAAAAAAAAAAAAAAAAAAAAAAAAAAAAAAAAAAAAAAAAAAAAAAAAAAAAAAAAAAAAAAAAAAAAAAAAAAAAAAAAAAAAAAAAAAAAAAAAAAAAAAAAAAAAAAAAAAAAAAAAAAAAAAAAAAAAAAAAAAAAAAAAAAAAAAAAAAAAAAAAAAAAAAAAAAAAAAAAAAAAAAAAAAAAAAAAAAAAAAAAAAAAAAAAAAAAAAAAAAAAAAAAAAAAAAAAAAAAAAAAAAAAAAAAAAAAAAAAAAAAAAAAAAAAAAAAAAAAAAAAAAAAAAAAAAAAAAAAAAAAAAAAAAAAAAAAAAAAAAAAAAAAAAAAAAAAAAAAAAAAAAAAAAAAAAAAAAAAAAAAAAAAAAAAAAAAAAAAAAAAAAAAAAAAAAAAAAAAAAAAAAAAAAAAAAAAAAAAAAAAAAAAAAAAAAAAAAAAAAAAAAAAAAAAAAAAAAAAAAAAAAAAAAAAAAAAAAAAAAAAAAAAAAAAAAAAAAAAAAAAAAAAAAAAAAAAAAAAAAAAAAAAAAAAAAAAAAAAAAAAAAAAAAAAAAAAAAAAAAAAAAAAAAAAAAAAAAAAAAAAAAAAAAAAAAAAAAAAAAAAAAAAAAAAAAAAAAAAAAAAAAAAAAAAAAAAAAAAAAAAAAAAAAAAAAAAAAAAAAAAAAAAAAAAAAAAAAAAAAAAAAAAAAAAAAAAAAAAAAAAAAAAAAAAAAAAAAAAAAAAAAAAAAAAAAAAAAAAAAAAAAAAAAAAAAAAAAAAAAAAAAAAAAAAAAAAAAAAAAAAAAAAAAAAAAAAAAAAAAAAAAAAAAAAAAAAAAAAAAAAAAAAAAAAAAAAAAAAAAAAAAAAAAAAAAAAAAAAAAAAAAAAAAAAAAAAAAAAAAAAAAAAAAAAAAAAAAAAAAAAAAAAAAAAAAAAAAAAAAAAAAAAAAAAAAAAAAAAAAAAAAAAAAAAAAAAAAAAAAAAAAAAAAAAAAAAAAAAAAAAAAAAAAAAAAAAAAAAAAAAAAAAAAAAAAAAAAAAAAAAAAAAAAAAAAAAAAAAAAAAAAAAAAAAAAAAAAAAAAAAAAAAAAAAAAAAAAAAAAAAAAAAAAAAAAAAAAAAAAAAAAAAAAAAAAAAAAAAAAAAAAAAAAAAAAAAAAAAAAAAAAAAAAAAAAAAAAAAAAAAAAAAAAAAAAAAAAAAAAAAAAAAAAAAAAAAAAAAAAAAAAAAAAAAAAAAAAAAAAAAAAAAAAAAAAAAAAAAAAAAAAAAAAAAAAAAAAAAAAAAAAAAAAAAAAAAAAAAAAAAAAAAAAAAAAAAAAAAAAAAAAAAAAAAAAAAAAAAAAAAAAAAAAAAAAAAAAAAAAAAAAAAAAAAAAAAAAAAAAAAAAAAAAAAAAAAAAAAAAAAAAAAAAAAAAAAAAAAAAAAAAAAAAAAAAAAAAAAAAAAAAAAAAAAAAAAAAAAAAAAAAAAAAAAAAAAAAAAAAAAAAAAAAAAAAAAAAAAAAAAAAAAAAAAAAAAAAAAAAAAAAAAAAAAAAAAAAAAAAAAAAAAAAAAAAAAAAAAAAAAAAAAAAAAAAAAAAAAAAAAAAAAAAAAAAAAAAAAAAAAAAAAAAAAAAAAAAAAAAAAAAAAAAAAAAAAAAAAAAAAAAAAAAAAAAAAAAAAAAAAAAAAAAAAAAAAAAAAAAAAAAAAAAAAAAAAAAAAAAAAAAAAAAAAAAAAAAAAAAAAAAAAAAAAAAAAAAAAAAAAAAAAAAAAAAAAAAAAAAAAAAAAAAAAAAAAAAAAAAAAAAAAAAAAAAAAAAAAAAAAAAAAAAAAAAAAAAAAAAAAAAAAAAAAAAAAAAAAAAAAAAAAAAAAAAAAAAAAAAAAAAAAAAAAAAAAAAAAAAAAAAAAAAAAAAAAAAAAAAAAAAAAAAAAAAAAAAAAAAAAAAAAAAAAAAAAAAAAAAAAAAAAAAAAAAAAAAAAAAAAAAAAAAAAAAAAAAAAAAAAAAAAAAAAAAAAAAAAAAAAAAAAAAAAAAAAAAAAAAAAAAAAAAAAAAAAAAAAAAAAAAAAAAAAAAAAAAAAAAAAAAAAAAAAAAAAAAAAAAAAAAAAAAAAAAAAAAAAAAAAAAAAAAAAAAAAAAAAAAAAAAAAAAAAAAAAAAAAAAAAAAAAAAAAAAAAAAAAAAAAAAAAAAAAAAAAAAAAAAAAAAAAAAAAAAAAAAAAAAAAAAAAAAAAAAAAAAAAAAAAAAAAAAAAAAAAAAAAAAAAAAAAAAAAAAAAAAAAAAAAAAAAAAAAAAAAAAAAAAAAAAAAAAAAAAAAAAAAAAAAAAAAAAAAAAAAAAAAAAAAAAAAAAAAAAAAAAAAAAAAAAAAAAAAAAAAAAAAAAAAAAAAAAAAAAAAAAAAAAAAAAAAAAAAAAAAAAAAAAAAAAAAAAAAAAAAAAAAAAAAAAAAAAAAAAAAAAAAAAAAAAAAAAAAAAAAAAAAAAAAAAAAAAAAAAAAAAAAAAAAAAAAAAAAAAAAAAAAAAAAAAAAAAAAAAAAAAAAAAAAAAAAAAAAAAAAAAAAAAAAAAAAAAAAAAAAAAAAAAAAAAAAAAAAAAAAAAAAAAAAAAAAAAAAAAAAAAAAAAAAAAAAAAAAAAAAAAAAAAAAAAAAAAAAAAAAAAAAAAAAAAAAAAAAAAAAAAAAAAAAAAAAAAAAAAAAAAAAAAAAAAAAAAAAAAAAAAAAAAAAAAAAAAAAAAAAAAAAAAAAAAAAAAAAAAAAAAAAAAAAAAAAAAAAAAAAAAAAAAAAAAAAAAAAAAAAAAAAAAAAAAAAAAAAAAAAAAAAAAAAAAAAAAAAAAAAAAAAAAAAAAAAAAAAAAAAAAAAAAAAAAAAAAAAAAAAAAAAAAAAAAAAAAAAAAAAAAAAAAAAAAAAAAAAAAAAAAAAAAAAAAAAAAAAAAAAAAAAAAAAAAAAAAAAAAAAAAAAAAAAAAAAAAAAAAAAAAAAAAAAAAAAAAAAAAAAAAAAAAAAAAAAAAAAAAAAAAAAAAAAAAAAAAAAAAAAAAAAAAAAAAAAAAAAAAAAAAAAAAAAAAAAAAAAAAAAAAAAAAAAAAAAAAAAAAAAAAAAAAAAAAAAAAAAAAAAAAAAAAAAAAAAAAAAAAAAAAAAAAAAAAAAAAAAAAAAAAAAAAAAAAAAAAAAAAAAAAAAAAAAAAAAAAAAAAAAAAAAAAAAAAAAAAAAAAAAAAAAAAAAAAAAAAAAAAAAAAAAAAAAAAAAAAAAAAAAAAAAAAAAAAAAAAAAAAAAAAAAAAAAAAAAAAAAAAAAAAAAAAAAAAAAAAAAAAAAAAAAAAAAAAAAAAAAAAAAAAAAAAAAAAAAAAAAAAAAAAAAAAAAAAAAAAAAAAAAAAAAAAAAAAAAAAAAAAAAAAAAAAAAAAAAAAAAAAAAAAAAAAAAAAAAAAAAAAAAAAAAAAAAAAAAAAAAAAAAAAAAAAAAAAAAAAAAAAAAAAAAAAAAAAAAAAAAAAAAAAAAAAAAAAAAAAAAAAAAAAAAAAAAAAAAAAAAAAAAAAAAAAAAAAAAAAAAAAAAAAAAAAAAAAAAAAAAAAAAAAAAAAAAAAAAAAAAAAAAAAAAAAAAAAAPZYQIUCaE38cvsGy/8UKt6yAOLQgPaBhCT7EMKac8f1akVWMYLQqvmv5vJcuMBrAOQfK04NxaIB/snr9YRcjiinqXg=</c2pa:manifest></metadata><defs><clipPath id="sdclip0"><rect x="0" y="0" width="1040" height="600"/></clipPath></defs><rect width="1040" height="722" fill="#FFFFFF"/><text x="520.0" y="34" font-family="'Noto Sans CJK TC','Noto Sans TC','Microsoft JhengHei','PingFang TC','Heiti TC',sans-serif" font-size="17.5" fill="#1F2733" text-anchor="middle" font-weight="700">右腿（二）：強軸彎曲強度的三個區段</text><text x="520.0" y="58" font-family="'Noto Sans CJK TC','Noto Sans TC','Microsoft JhengHei','PingFang TC','Heiti TC',sans-serif" font-size="13" fill="#6B7684" text-anchor="middle">Lb 落在哪一段，決定 Mn 用哪一條式子</text><g transform="translate(0,76)" clip-path="url(#sdclip0)"><rect x="6" y="6" width="1028" height="588" rx="14" fill="#F5F7FA" stroke="#E1E6ED" stroke-width="1.2"/><polygon points="120.00,488.00 239.73,488.00 239.73,130.00 120.00,130.00" fill="rgba(29,78,216,0.18)" stroke="none" stroke-width="1" opacity="1.0"/><polygon points="239.73,488.00 471.72,488.00 471.72,130.00 239.73,130.00" fill="rgba(46,125,111,0.20)" stroke="none" stroke-width="1" opacity="1.0"/><polygon points="471.72,488.00 712.00,488.00 712.00,130.00 471.72,130.00" fill="rgba(124,58,237,0.18)" stroke="none" stroke-width="1" opacity="1.0"/><line x1="120.00" y1="488.00" x2="721.00" y2="488.00" stroke="#6B7684" stroke-width="1.8" stroke-linecap="round"/><polygon points="730.00,488.00 721.00,492.14 721.00,483.86" fill="#6B7684"/><line x1="120.00" y1="488.00" x2="120.00" y2="121.00" stroke="#6B7684" stroke-width="1.8" stroke-linecap="round"/><polygon points="120.00,112.00 124.14,121.00 115.86,121.00" fill="#6B7684"/><text x="738.00" y="493.00" font-family="'Latin Modern Math','Cambria Math','Times New Roman','Nimbus Roman',serif" font-size="14.5" fill="#6B7684" text-anchor="start" dominant-baseline="middle" font-weight="400" font-style="italic">L<tspan dy="4.35" font-size="9.86">b</tspan><tspan dy="-4.35" font-size="14.5">  (m)</tspan></text><text x="86.99" y="98.00" font-family="'Latin Modern Math','Cambria Math','Times New Roman','Nimbus Roman',serif" font-size="14.5" fill="#6B7684" text-anchor="start" dominant-baseline="middle" font-weight="400" font-style="italic">M<tspan dy="4.35" font-size="9.86">n</tspan><tspan dy="-4.35" font-size="14.5">  (tf-m)</tspan></text><polyline points="121.03,168.36 123.10,168.36 125.17,168.36 127.24,168.36 129.31,168.36 131.38,168.36 133.45,168.36 135.52,168.36 137.59,168.36 139.66,168.36 141.73,168.36 143.80,168.36 145.87,168.36 147.94,168.36 150.01,168.36 152.08,168.36 154.15,168.36 156.22,168.36 158.29,168.36 160.36,168.36 162.43,168.36 164.50,168.36 166.57,168.36 168.64,168.36 170.71,168.36 172.78,168.36 174.85,168.36 176.92,168.36 178.99,168.36 181.06,168.36 183.13,168.36 185.20,168.36 187.27,168.36 189.34,168.36 191.41,168.36 193.48,168.36 195.55,168.36 197.62,168.36 199.69,168.36 201.76,168.36 203.83,168.36 205.90,168.36 207.97,168.36 210.04,168.36 212.11,168.36 214.18,168.36 216.25,168.36 218.32,168.36 220.39,168.36 222.46,168.36 224.53,168.36 226.60,168.36 228.67,168.36 230.74,168.36 232.81,168.36 234.88,168.36 236.95,168.36 239.02,168.36 241.09,169.03 243.16,170.05 245.23,171.06 247.30,172.08 249.37,173.10 251.44,174.12 253.51,175.14 255.58,176.16 257.65,177.17 259.72,178.19 261.79,179.21 263.86,180.23 265.93,181.25 268.00,182.27 270.07,183.29 272.14,184.30 274.21,185.32 276.28,186.34 278.35,187.36 280.42,188.38 282.49,189.40 284.56,190.41 286.63,191.43 288.70,192.45 290.77,193.47 292.84,194.49 294.91,195.51 296.98,196.53 299.05,197.54 301.12,198.56 303.19,199.58 305.26,200.60 307.33,201.62 309.40,202.64 311.47,203.65 313.54,204.67 315.61,205.69 317.68,206.71 319.75,207.73 321.82,208.75 323.89,209.76 325.96,210.78 328.03,211.80 330.10,212.82 332.17,213.84 334.24,214.86 336.31,215.88 338.38,216.89 340.45,217.91 342.52,218.93 344.59,219.95 346.66,220.97 348.73,221.99 350.80,223.00 352.87,224.02 354.94,225.04 357.01,226.06 359.08,227.08 361.15,228.10 363.22,229.12 365.29,230.13 367.36,231.15 369.43,232.17 371.50,233.19 373.57,234.21 375.64,235.23 377.71,236.24 379.78,237.26 381.85,238.28 383.92,239.30 385.99,240.32 388.06,241.34 390.13,242.35 392.20,243.37 394.27,244.39 396.34,245.41 398.41,246.43 400.48,247.45 402.55,248.47 404.62,249.48 406.69,250.50 408.76,251.52 410.83,252.54 412.90,253.56 414.97,254.58 417.03,255.59 419.10,256.61 421.17,257.63 423.24,258.65 425.31,259.67 427.38,260.69 429.45,261.71 431.52,262.72 433.59,263.74 435.66,264.76 437.73,265.78 439.80,266.80 441.87,267.82 443.94,268.83 446.01,269.85 448.08,270.87 450.15,271.89 452.22,272.91 454.29,273.93 456.36,274.94 458.43,275.96 460.50,276.98 462.57,278.00 464.64,279.02 466.71,280.04 468.78,281.06 470.85,282.07 472.92,283.55 474.99,285.33 477.06,287.09 479.13,288.81 481.20,290.51 483.27,292.18 485.34,293.82 487.41,295.44 489.48,297.03 491.55,298.60 493.62,300.14 495.69,301.66 497.76,303.16 499.83,304.63 501.90,306.08 503.97,307.51 506.04,308.92 508.11,310.30 510.18,311.67 512.25,313.02 514.32,314.34 516.39,315.65 518.46,316.94 520.53,318.21 522.60,319.46 524.67,320.69 526.74,321.91 528.81,323.11 530.88,324.29 532.95,325.46 535.02,326.61 537.09,327.74 539.16,328.86 541.23,329.96 543.30,331.05 545.37,332.13 547.44,333.19 549.51,334.23 551.58,335.27 553.65,336.29 555.72,337.29 557.79,338.28 559.86,339.26 561.93,340.23 564.00,341.19 566.07,342.13 568.14,343.06 570.21,343.98 572.28,344.89 574.35,345.79 576.42,346.67 578.49,347.55 580.56,348.41 582.63,349.27 584.70,350.11 586.77,350.94 588.84,351.77 590.91,352.58 592.98,353.38 595.05,354.18 597.12,354.96 599.19,355.74 601.26,356.51 603.33,357.27 605.40,358.02 607.47,358.76 609.54,359.49 611.61,360.22 613.68,360.93 615.75,361.64 617.82,362.34 619.89,363.04 621.96,363.72 624.03,364.40 626.10,365.07 628.17,365.73 630.24,366.39 632.31,367.04 634.38,367.68 636.45,368.32 638.52,368.95 640.59,369.57 642.66,370.18 644.73,370.79 646.80,371.40 648.87,371.99 650.94,372.58 653.01,373.17 655.08,373.75 657.15,374.32 659.22,374.89 661.29,375.45 663.36,376.00 665.43,376.55 667.50,377.10 669.57,377.64 671.64,378.17 673.71,378.70 675.78,379.23 677.85,379.74 679.92,380.26 681.99,380.77 684.06,381.27 686.13,381.77 688.20,382.27" fill="none" stroke="#2E7D6F" stroke-width="4.2" stroke-linecap="round" stroke-linejoin="round" opacity="1.0"/><line x1="239.73" y1="488.00" x2="239.73" y2="130.00" stroke="#B45309" stroke-width="2.0" stroke-linecap="round" stroke-dasharray="7 5" opacity="1.0"/><text x="232.96" y="508.00" font-family="'Latin Modern Math','Cambria Math','Times New Roman','Nimbus Roman',serif" font-size="15.5" fill="#B45309" text-anchor="start" dominant-baseline="middle" font-weight="700" font-style="italic">L<tspan dy="4.65" font-size="10.54">p</tspan></text><text x="239.73" y="528.00" font-family="'Latin Modern Math','Cambria Math','Times New Roman','Nimbus Roman',serif" font-size="12.5" fill="#B45309" text-anchor="middle" dominant-baseline="middle" font-weight="400" font-style="italic">2.31 m</text><line x1="471.72" y1="488.00" x2="471.72" y2="130.00" stroke="#B45309" stroke-width="2.0" stroke-linecap="round" stroke-dasharray="7 5" opacity="1.0"/><text x="464.95" y="508.00" font-family="'Latin Modern Math','Cambria Math','Times New Roman','Nimbus Roman',serif" font-size="15.5" fill="#B45309" text-anchor="start" dominant-baseline="middle" font-weight="700" font-style="italic">L<tspan dy="4.65" font-size="10.54">r</tspan></text><text x="471.72" y="528.00" font-family="'Latin Modern Math','Cambria Math','Times New Roman','Nimbus Roman',serif" font-size="12.5" fill="#B45309" text-anchor="middle" dominant-baseline="middle" font-weight="400" font-style="italic">6.80 m</text><line x1="120.00" y1="168.36" x2="712.00" y2="168.36" stroke="#C3CAD5" stroke-width="1.6" stroke-linecap="round" stroke-dasharray="4 4" opacity="1.0"/><text x="94.90" y="168.36" font-family="'Latin Modern Math','Cambria Math','Times New Roman','Nimbus Roman',serif" font-size="15" fill="#6B7684" text-anchor="start" dominant-baseline="middle" font-weight="700" font-style="italic">M<tspan dy="4.50" font-size="10.2">p</tspan></text><text x="108.00" y="186.36" font-family="'Latin Modern Math','Cambria Math','Times New Roman','Nimbus Roman',serif" font-size="12" fill="#6B7684" text-anchor="end" dominant-baseline="middle" font-weight="400" font-style="italic">32.1</text><line x1="120.00" y1="282.50" x2="712.00" y2="282.50" stroke="#C3CAD5" stroke-width="1.6" stroke-linecap="round" stroke-dasharray="4 4" opacity="1.0"/><text x="94.90" y="282.50" font-family="'Latin Modern Math','Cambria Math','Times New Roman','Nimbus Roman',serif" font-size="15" fill="#6B7684" text-anchor="start" dominant-baseline="middle" font-weight="700" font-style="italic">M<tspan dy="4.50" font-size="10.2">r</tspan></text><text x="108.00" y="300.50" font-family="'Latin Modern Math','Cambria Math','Times New Roman','Nimbus Roman',serif" font-size="12" fill="#6B7684" text-anchor="end" dominant-baseline="middle" font-weight="400" font-style="italic">20.7</text><text x="179.86" y="409.24" font-family="'Noto Sans CJK TC','Noto Sans TC','Microsoft JhengHei','PingFang TC','Heiti TC',sans-serif" font-size="14.5" fill="#1D4ED8" text-anchor="middle" dominant-baseline="middle" font-weight="700">塑性</text><text x="159.37" y="433.24" font-family="'Latin Modern Math','Cambria Math','Times New Roman','Nimbus Roman',serif" font-size="14.5" fill="#1D4ED8" text-anchor="start" dominant-baseline="middle" font-weight="400" font-style="italic">M<tspan dy="4.35" font-size="9.86">n</tspan><tspan dy="-4.35" font-size="14.5"> = M</tspan><tspan dy="4.35" font-size="9.86">p</tspan></text><text x="355.73" y="409.24" font-family="'Noto Sans CJK TC','Noto Sans TC','Microsoft JhengHei','PingFang TC','Heiti TC',sans-serif" font-size="14.5" fill="#2E7D6F" text-anchor="middle" dominant-baseline="middle" font-weight="700">非彈性 LTB</text><text x="355.73" y="433.24" font-family="'Noto Sans CJK TC','Noto Sans TC','Microsoft JhengHei','PingFang TC','Heiti TC',sans-serif" font-size="13.5" fill="#2E7D6F" text-anchor="middle" dominant-baseline="middle" font-weight="400">直線內插</text><text x="580.48" y="409.24" font-family="'Noto Sans CJK TC','Noto Sans TC','Microsoft JhengHei','PingFang TC','Heiti TC',sans-serif" font-size="14.5" fill="#7C3AED" text-anchor="middle" dominant-baseline="middle" font-weight="700">彈性 LTB</text><text x="557.42" y="433.24" font-family="'Latin Modern Math','Cambria Math','Times New Roman','Nimbus Roman',serif" font-size="14.5" fill="#7C3AED" text-anchor="start" dominant-baseline="middle" font-weight="400" font-style="italic">M<tspan dy="4.35" font-size="9.86">n</tspan><tspan dy="-4.35" font-size="14.5"> = M</tspan><tspan dy="4.35" font-size="9.86">cr</tspan></text><line x1="778" y1="152" x2="800" y2="152" stroke="#2E7D6F" stroke-width="4" stroke-linecap="round"/><text x="808.00" y="152.00" font-family="'Noto Sans CJK TC','Noto Sans TC','Microsoft JhengHei','PingFang TC','Heiti TC',sans-serif" font-size="13" fill="#6B7684" text-anchor="start" dominant-baseline="middle" font-weight="400">φ<tspan dy="3.90" font-size="8.84">b</tspan><tspan dy="-3.90" font-size="13">M</tspan><tspan dy="3.90" font-size="8.84">nx</tspan><tspan dy="-3.90" font-size="13">　(φ</tspan><tspan dy="3.90" font-size="8.84">b</tspan><tspan dy="-3.90" font-size="13"> = 0.90)</tspan></text><text x="870.00" y="206.00" font-family="'Noto Sans CJK TC','Noto Sans TC','Microsoft JhengHei','PingFang TC','Heiti TC',sans-serif" font-size="14.5" fill="#C0392B" text-anchor="middle" dominant-baseline="middle" font-weight="700">弱軸沒有 LTB</text><text x="870.00" y="234.00" font-family="'Noto Sans CJK TC','Noto Sans TC','Microsoft JhengHei','PingFang TC','Heiti TC',sans-serif" font-size="12.5" fill="#6B7684" text-anchor="middle" dominant-baseline="middle" font-weight="400">弱軸不會側傾，</text><text x="870.00" y="254.00" font-family="'Noto Sans CJK TC','Noto Sans TC','Microsoft JhengHei','PingFang TC','Heiti TC',sans-serif" font-size="12.5" fill="#6B7684" text-anchor="middle" dominant-baseline="middle" font-weight="400">改由形狀因數上限控制：</text><text x="827.89" y="284.00" font-family="'Latin Modern Math','Cambria Math','Times New Roman','Nimbus Roman',serif" font-size="15" fill="#C0392B" text-anchor="start" dominant-baseline="middle" font-weight="700" font-style="italic">M<tspan dy="4.50" font-size="10.2">ny</tspan><tspan dy="-4.50" font-size="15"> ≤ 1.5F</tspan><tspan dy="4.50" font-size="10.2">y</tspan><tspan dy="-4.50" font-size="15">S</tspan><tspan dy="4.50" font-size="10.2">y</tspan></text><text x="810.08" y="316.00" font-family="'Noto Sans CJK TC','Noto Sans TC','Microsoft JhengHei','PingFang TC','Heiti TC',sans-serif" font-size="12.5" fill="#6B7684" text-anchor="start" dominant-baseline="middle" font-weight="400">題目同時給 Z<tspan dy="3.75" font-size="8.5">y</tspan><tspan dy="-3.75" font-size="12.5"> 與 S</tspan><tspan dy="3.75" font-size="8.5">y</tspan><tspan dy="-3.75" font-size="12.5">，</tspan></text><text x="870.00" y="336.00" font-family="'Noto Sans CJK TC','Noto Sans TC','Microsoft JhengHei','PingFang TC','Heiti TC',sans-serif" font-size="12.5" fill="#B45309" text-anchor="middle" dominant-baseline="middle" font-weight="700">就是在提示你要檢查。</text><text x="399.79" y="560.00" font-family="'Noto Sans CJK TC','Noto Sans TC','Microsoft JhengHei','PingFang TC','Heiti TC',sans-serif" font-size="12.5" fill="#6B7684" text-anchor="start" dominant-baseline="middle" font-weight="400">示範斷面 H 400×200×8×13　F<tspan dy="3.75" font-size="8.5">y</tspan><tspan dy="-3.75" font-size="12.5"> = 2.5 tf/cm²</tspan></text></g><text x="520.0" y="700" font-family="'Noto Sans CJK TC','Noto Sans TC','Microsoft JhengHei','PingFang TC','Heiti TC',sans-serif" font-size="13.5" fill="#6B7684" text-anchor="middle">本例 Lp = 2.31 m、Lr = 6.80 m 皆由斷面性質算出，不是背來的；考試時題目多半直接給 Lp、Lr，你只要會判區段。</text></svg>